<svg width="41" height="40" viewBox="0 0 41 40" fill="none" xmlns="http://www.w3.org/2000/svg">
<path d="M20.1907 40.0002C22.2312 40.0002 23.8853 38.3551 23.8853 36.3258C23.8853 34.2965 22.2312 32.6514 20.1907 32.6514C18.1502 32.6514 16.4961 34.2965 16.4961 36.3258C16.4961 38.3551 18.1502 40.0002 20.1907 40.0002Z" fill="#1F2024"/>
<path d="M3.77713 23.6736C5.8176 23.6736 7.47174 22.0285 7.47174 19.9991C7.47174 17.9698 5.8176 16.3247 3.77713 16.3247C1.73665 16.3247 0.0825195 17.9698 0.0825195 19.9991C0.0825195 22.0285 1.73665 23.6736 3.77713 23.6736Z" fill="#1F2024"/>
<path d="M36.6067 23.6736C38.6472 23.6736 40.3013 22.0285 40.3013 19.9991C40.3013 17.9698 38.6472 16.3247 36.6067 16.3247C34.5662 16.3247 32.9121 17.9698 32.9121 19.9991C32.9121 22.0285 34.5662 23.6736 36.6067 23.6736Z" fill="#1F2024"/>
<path fill-rule="evenodd" clip-rule="evenodd" d="M28.5554 20.093C28.5272 22.7598 30.1513 25.1602 32.6354 26.1654C33.8087 26.6399 34.7832 27.1474 35.2955 27.6569C37.3411 29.6909 37.3411 32.989 35.2955 35.0235C33.2503 37.058 29.9341 37.058 27.8884 35.0235C27.3766 34.514 26.8663 33.5448 26.3887 32.3779C25.3781 29.9074 22.9644 28.2916 20.283 28.3202H20.1917H20.1005C17.419 28.2921 15.0054 29.9074 13.9947 32.3779C13.5176 33.5448 13.0073 34.514 12.495 35.0235C10.4499 37.058 7.13364 37.058 5.08797 35.0235C3.04229 32.9895 3.04229 29.6914 5.08797 27.6569C5.60025 27.1479 6.57473 26.6404 7.74808 26.1654C10.2321 25.1602 11.8568 22.7598 11.828 20.093V20.0027V19.912C11.8563 17.2452 10.2321 14.8447 7.74808 13.8395C6.57473 13.3651 5.60025 12.8575 5.08797 12.3481C3.04229 10.314 3.04229 7.01594 5.08797 4.98144C7.13314 2.94694 10.4494 2.94694 12.495 4.98144C13.0068 5.49093 13.5171 6.46009 13.9947 7.62703C15.0054 10.0975 17.419 11.7133 20.1005 11.6847H20.1917H20.283C22.9644 11.7128 25.3781 10.0975 26.3887 7.62703C26.8658 6.46009 27.3761 5.49093 27.8884 4.98144C29.9336 2.94694 33.2498 2.94694 35.2955 4.98144C37.3411 7.01545 37.3411 10.3136 35.2955 12.3481C34.7832 12.8571 33.8087 13.3646 32.6354 13.8395C30.1513 14.8447 28.5267 17.2452 28.5554 19.912V20.0027V20.093ZM24.9077 20.0019C24.9077 22.5926 22.7959 24.6928 20.191 24.6928C17.586 24.6928 15.4743 22.5926 15.4743 20.0019C15.4743 17.4112 17.586 15.311 20.191 15.311C22.7959 15.311 24.9077 17.4112 24.9077 20.0019Z" fill="#1F2024"/>
<path d="M20.1907 7.34886C22.2312 7.34886 23.8853 5.70376 23.8853 3.67443C23.8853 1.6451 22.2312 0 20.1907 0C18.1502 0 16.4961 1.6451 16.4961 3.67443C16.4961 5.70376 18.1502 7.34886 20.1907 7.34886Z" fill="#1F2024"/>
</svg>
